<?xml version="1.0" encoding="UTF-8"?>
<svg width="60px" height="60px" viewBox="0 0 60 60" version="1.1" xmlns="http://www.w3.org/2000/svg" xmlns:xlink="http://www.w3.org/1999/xlink">
    <title>图片失败，照片加载失败</title>
    <defs>
        <filter color-interpolation-filters="auto" id="filter-1">
            <feColorMatrix in="SourceGraphic" type="matrix" values="0 0 0 0 0.875947 0 0 0 0 0.886856 0 0 0 0 0.903221 0 0 0 1.000000 0"></feColorMatrix>
        </filter>
    </defs>
    <g id="页面-1" stroke="none" stroke-width="1" fill="none" fill-rule="evenodd">
        <g id="图片失败，照片加载失败" transform="translate(-1766.000000, -336.000000)" filter="url(#filter-1)">
            <g transform="translate(1766.000000, 336.000000)">
                <path d="M30.68745,0.000168094652 L16.7888251,24.2447431 L32.523225,30.898593 L28.928925,43.237068 L22.1898751,31.106868 C21.5461501,29.948193 20.0850751,29.530743 18.9263251,30.174468 L18.9263249,30.1744681 C18.6077594,30.3514456 18.3336802,30.5986456 18.1248749,30.8973181 L6.23437496,47.9065681 C5.47499996,48.9929431 5.74004996,50.4891931 6.82634996,51.2486431 L6.82634999,51.2486431 C7.22857649,51.5298249 7.70733749,51.6809386 8.19809999,51.6816181 L26.461425,51.7074931 L24.045825,60.0001681 L3,60.0001681 C1.343175,60.0001681 -1.55027325e-15,58.6569931 -1.55027325e-15,57.0001681 L-1.55027325e-15,3.00016809 C-1.55027325e-15,1.34334319 1.343175,0.000168094652 3,0.000168094652 L30.68745,0.000168094652 L30.68745,0.000168094652 Z M57,-3.10054651e-15 C58.656825,-3.10054651e-15 60,1.34334309 60,3.00016809 L60,57.000168 C60,58.656993 58.656825,60.000168 57,60.000168 L30.2952,60.000168 L32.70825,51.716418 L51.53115,51.743268 C52.856625,51.745143 53.93265,50.672118 53.934525,49.346643 L53.934525,49.3466175 C53.9352775,48.8180317 53.7615053,48.3039825 53.4401843,47.884275 L43.9210343,35.451075 C43.1152343,34.3986 41.6087843,34.19865 40.5563843,35.00445 L40.5563844,35.0044499 C40.2960849,35.2037594 40.0793791,35.4542849 39.9196344,35.7405749 L34.5689844,45.3286499 L39.7767594,27.451575 L25.3611594,21.35535 L37.6034094,-3.10054651e-15 L56.9999844,-3.10054651e-15 L57,-3.10054651e-15 Z M41.925,11.1001681 C38.611275,11.1001681 35.925,13.7864431 35.925,17.1001681 C35.925,20.4138931 38.611275,23.1001681 41.925,23.1001681 C45.238725,23.1001681 47.925,20.4138931 47.925,17.1001681 C47.925,13.7864431 45.238725,11.1001681 41.925,11.1001681 Z" id="形状" fill="#000000" fill-rule="nonzero"></path>
            </g>
        </g>
    </g>
</svg>